<svg width="1013" height="153" viewBox="0 0 1013 153" fill="none" xmlns="http://www.w3.org/2000/svg">
<path d="M65.872 123.648C72.0053 123.648 77.648 122.544 82.8 120.336C88.0747 118.005 92.6133 114.693 96.416 110.4C100.219 105.984 103.163 100.648 105.248 94.392C107.456 88.0133 108.56 80.8373 108.56 72.864C108.56 63.0507 107.395 54.096 105.064 46C102.733 37.7813 99.4827 30.728 95.312 24.84C91.1413 18.952 86.112 14.4133 80.224 11.224C74.4587 7.912 68.08 6.256 61.088 6.256C56.4267 6.256 51.5813 7.23733 46.552 9.19999C41.6453 11.04 37.168 14.0453 33.12 18.216C29.072 22.264 25.76 27.5387 23.184 34.04C20.608 40.5413 19.32 48.392 19.32 57.592C19.32 66.424 20.3627 74.8267 22.448 82.8C24.656 90.7733 27.784 97.8267 31.832 103.96C35.88 109.971 40.7867 114.755 46.552 118.312C52.3173 121.869 58.7573 123.648 65.872 123.648ZM127.88 65.136C127.88 72.7413 126.592 80.408 124.016 88.136C121.44 95.7413 117.515 102.672 112.24 108.928C106.965 115.061 100.28 120.091 92.184 124.016C84.088 127.941 74.52 129.904 63.48 129.904C54.5253 129.904 46.184 128.371 38.456 125.304C30.728 122.115 23.9813 117.699 18.216 112.056C12.5733 106.413 8.096 99.6667 4.784 91.816C1.59467 83.8427 0 75.0107 0 65.32C0 55.9973 1.59467 47.3493 4.784 39.376C7.97333 31.4027 12.3893 24.5333 18.032 18.768C23.7973 12.88 30.6053 8.27999 38.456 4.96799C46.4293 1.656 55.0773 0 64.4 0C74.4587 0 83.4133 1.84 91.264 5.51999C99.1147 9.07733 105.739 13.9227 111.136 20.056C116.533 26.0667 120.643 32.9973 123.464 40.848C126.408 48.6987 127.88 56.7947 127.88 65.136Z" fill="#111111"/>
<path d="M164.656 58.88C169.317 54.2187 174.285 50.416 179.56 47.472C184.957 44.528 190.6 43.056 196.488 43.056C203.848 43.056 209.736 45.3867 214.152 50.048C218.69 54.7093 220.96 61.1493 220.96 69.368V108.56C220.96 114.325 221.941 118.189 223.904 120.152C225.989 121.992 229.485 122.912 234.392 122.912V127.696H192.256V122.912C198.021 122.912 201.824 121.869 203.664 119.784C205.626 117.576 206.608 113.528 206.608 107.64V70.472C206.608 66.056 205.136 62.192 202.192 58.88C199.37 55.568 195.322 53.912 190.048 53.912C185.754 53.912 181.338 54.8933 176.8 56.856C172.261 58.8187 168.213 61.5173 164.656 64.952V108.192C164.656 111.504 164.901 114.141 165.392 116.104C166.005 118.067 166.864 119.539 167.968 120.52C169.194 121.501 170.666 122.176 172.384 122.544C174.101 122.789 176.125 122.912 178.456 122.912H179.376V127.696H136.504V122.912C141.901 122.912 145.52 121.869 147.36 119.784C149.322 117.699 150.304 113.651 150.304 107.64V59.984L137.24 53.912V51.336L164.656 43.056V58.88Z" fill="#111111"/>
<path d="M289.199 70.472H284.415C283.066 62.744 280.858 57.1627 277.791 53.728C274.725 50.1707 270.677 48.392 265.647 48.392C261.354 48.392 257.858 49.5573 255.159 51.888C252.461 54.2187 251.111 57.224 251.111 60.904C251.111 64.584 252.215 67.4667 254.423 69.552C256.631 71.6373 259.882 73.7227 264.175 75.808C267.365 77.4027 270.431 78.8747 273.375 80.224C276.319 81.4507 279.018 82.8613 281.471 84.456C285.765 87.1547 289.138 90.16 291.591 93.472C294.045 96.784 295.271 100.771 295.271 105.432C295.271 108.989 294.535 112.24 293.063 115.184C291.591 118.128 289.567 120.704 286.991 122.912C284.415 124.997 281.349 126.653 277.791 127.88C274.234 129.107 270.431 129.72 266.383 129.72C262.09 129.72 257.735 129.107 253.319 127.88C248.903 126.776 244.794 125.12 240.991 122.912V100.096H245.775C246.511 107.456 248.719 113.344 252.399 117.76C256.202 122.176 261.109 124.384 267.119 124.384C271.658 124.384 275.461 122.973 278.527 120.152C281.717 117.331 283.311 113.896 283.311 109.848C283.311 106.291 282.146 103.408 279.815 101.2C277.607 98.992 274.173 96.6613 269.511 94.208C265.954 92.368 262.519 90.712 259.207 89.24C256.018 87.768 253.135 86.1733 250.559 84.456C246.879 82.0027 243.935 79.304 241.727 76.36C239.642 73.416 238.599 69.736 238.599 65.32C238.599 62.008 239.274 59.0027 240.623 56.304C241.973 53.6053 243.813 51.2747 246.143 49.312C248.597 47.3493 251.418 45.816 254.607 44.712C257.919 43.608 261.538 43.056 265.463 43.056C269.634 43.056 273.743 43.7307 277.791 45.08C281.839 46.3067 285.642 48.2693 289.199 50.968V70.472Z" fill="#111111"/>
<path d="M329.473 108.008C329.473 113.037 330.27 116.779 331.865 119.232C333.459 121.685 336.955 122.912 342.353 122.912V127.696H300.768V122.912C303.467 122.912 305.737 122.728 307.577 122.36C309.417 121.992 310.888 121.256 311.992 120.152C313.096 119.048 313.894 117.515 314.384 115.552C314.875 113.467 315.121 110.768 315.121 107.456V59.8L301.689 53.728V50.968L329.473 43.056V108.008ZM331.496 9.384C331.496 11.96 330.577 14.168 328.737 16.008C326.897 17.848 324.688 18.768 322.112 18.768C319.536 18.768 317.328 17.848 315.488 16.008C313.648 14.168 312.728 11.96 312.728 9.384C312.728 6.808 313.648 4.6 315.488 2.76C317.328 0.919999 319.536 0 322.112 0C324.688 0 326.897 0.919999 328.737 2.76C330.577 4.6 331.496 6.808 331.496 9.384Z" fill="#111111"/>
<path d="M370.349 26.864V44.896H395.741V51.52H370.349V108.744C370.349 112.915 371.147 115.981 372.741 117.944C374.459 119.907 377.832 120.888 382.861 120.888C384.824 120.888 386.909 120.827 389.117 120.704C391.448 120.459 394.208 120.029 397.397 119.416V125.12C393.595 126.469 389.485 127.573 385.069 128.432C380.776 129.291 377.096 129.72 374.029 129.72C367.405 129.72 362.744 128.187 360.045 125.12C357.347 121.931 355.997 117.392 355.997 111.504V51.52H341.277V47.288C347.533 45.5707 352.563 43.056 356.365 39.744C360.291 36.3093 363.419 32.016 365.749 26.864H370.349Z" fill="#111111"/>
<path d="M452.389 70.288C451.653 63.296 449.568 57.8987 446.133 54.096C442.698 50.2933 438.221 48.392 432.701 48.392C427.549 48.392 422.949 50.416 418.901 54.464C414.976 58.3893 412.461 63.664 411.357 70.288H452.389ZM410.621 75.44V78.568C410.621 84.456 411.48 89.7307 413.197 94.392C414.914 99.0533 417.245 103.04 420.189 106.352C423.256 109.664 426.813 112.24 430.861 114.08C434.909 115.797 439.264 116.656 443.925 116.656C448.586 116.656 452.573 115.92 455.885 114.448C459.197 112.976 462.754 110.339 466.557 106.536L469.685 109.664C460.73 123.035 449.752 129.72 436.749 129.72C431.229 129.72 426.077 128.739 421.293 126.776C416.632 124.691 412.584 121.808 409.149 118.128C405.714 114.325 403.016 109.787 401.053 104.512C399.09 99.2373 398.109 93.4107 398.109 87.032C398.109 80.776 399.029 74.9493 400.869 69.552C402.709 64.1547 405.285 59.4933 408.597 55.568C411.909 51.6427 415.896 48.576 420.557 46.368C425.218 44.16 430.309 43.056 435.829 43.056C440.49 43.056 444.845 43.9147 448.893 45.632C452.941 47.2267 456.437 49.496 459.381 52.44C462.448 55.2613 464.84 58.696 466.557 62.744C468.397 66.6693 469.44 70.9013 469.685 75.44H410.621Z" fill="#111111"/>
<path d="M510.422 0H518.334L477.118 152.536H469.207L510.422 0Z" fill="#111111"/>
<path d="M588.989 123.648C595.123 123.648 600.765 122.544 605.917 120.336C611.192 118.005 615.731 114.693 619.533 110.4C623.336 105.984 626.28 100.648 628.365 94.392C630.573 88.0133 631.677 80.8373 631.677 72.864C631.677 63.0507 630.512 54.096 628.181 46C625.851 37.7813 622.6 30.728 618.429 24.84C614.259 18.952 609.229 14.4133 603.341 11.224C597.576 7.912 591.197 6.256 584.205 6.256C579.544 6.256 574.699 7.23733 569.669 9.19999C564.763 11.04 560.285 14.0453 556.237 18.216C552.189 22.264 548.877 27.5387 546.301 34.04C543.725 40.5413 542.437 48.392 542.437 57.592C542.437 66.424 543.48 74.8267 545.565 82.8C547.773 90.7733 550.901 97.8267 554.949 103.96C558.997 109.971 563.904 114.755 569.669 118.312C575.435 121.869 581.875 123.648 588.989 123.648ZM650.997 65.136C650.997 72.7413 649.709 80.408 647.133 88.136C644.557 95.7413 640.632 102.672 635.357 108.928C630.083 115.061 623.397 120.091 615.301 124.016C607.205 127.941 597.637 129.904 586.597 129.904C577.643 129.904 569.301 128.371 561.573 125.304C553.845 122.115 547.099 117.699 541.333 112.056C535.691 106.413 531.213 99.6667 527.901 91.816C524.712 83.8427 523.117 75.0107 523.117 65.32C523.117 55.9973 524.712 47.3493 527.901 39.376C531.091 31.4027 535.507 24.5333 541.149 18.768C546.914 12.88 553.723 8.27999 561.573 4.96799C569.547 1.656 578.195 0 587.517 0C597.576 0 606.531 1.84 614.381 5.51999C622.232 9.07733 628.856 13.9227 634.253 20.056C639.651 26.0667 643.76 32.9973 646.581 40.848C649.525 48.6987 650.997 56.7947 650.997 65.136Z" fill="#111111"/>
<path d="M789.036 10.12C789.036 12.2053 788.3 13.984 786.828 15.456C785.479 16.8053 783.7 17.48 781.492 17.48C779.529 17.48 777.751 16.928 776.156 15.824C774.561 14.5973 773.028 13.3093 771.556 11.96C770.084 10.488 768.612 9.2 767.14 8.09599C765.668 6.86933 764.012 6.256 762.172 6.256C757.265 6.256 753.585 8.21866 751.132 12.144C748.679 15.9467 747.452 20.4853 747.452 25.76V44.896H768.796V51.52H747.452V107.824C747.452 113.712 748.311 117.699 750.028 119.784C751.868 121.869 755.119 122.912 759.78 122.912H766.22V127.696H717.644V122.912H719.484C724.636 122.912 728.193 121.931 730.156 119.968C732.119 118.005 733.1 114.019 733.1 108.008V51.52H718.012V44.896H721.508C725.556 44.896 728.5 44.528 730.34 43.792C732.303 42.9333 733.529 40.7867 734.02 37.352C734.265 35.2667 734.511 33.0587 734.756 30.728C735.001 28.3973 735.431 25.8213 736.044 23C737.516 16.2533 741.257 10.7333 747.268 6.43999C753.279 2.14666 760.823 0 769.9 0C776.156 0 780.879 0.919999 784.068 2.76C787.38 4.47733 789.036 6.93066 789.036 10.12Z" fill="#111111"/>
<path d="M831.91 70.472H827.126C825.777 62.744 823.569 57.1627 820.502 53.728C817.436 50.1707 813.388 48.392 808.358 48.392C804.065 48.392 800.569 49.5573 797.87 51.888C795.172 54.2187 793.822 57.224 793.822 60.904C793.822 64.584 794.926 67.4667 797.134 69.552C799.342 71.6373 802.593 73.7227 806.886 75.808C810.076 77.4027 813.142 78.8747 816.086 80.224C819.03 81.4507 821.729 82.8613 824.182 84.456C828.476 87.1547 831.849 90.16 834.302 93.472C836.756 96.784 837.982 100.771 837.982 105.432C837.982 108.989 837.246 112.24 835.774 115.184C834.302 118.128 832.278 120.704 829.702 122.912C827.126 124.997 824.06 126.653 820.502 127.88C816.945 129.107 813.142 129.72 809.094 129.72C804.801 129.72 800.446 129.107 796.03 127.88C791.614 126.776 787.505 125.12 783.702 122.912V100.096H788.486C789.222 107.456 791.43 113.344 795.11 117.76C798.913 122.176 803.82 124.384 809.83 124.384C814.369 124.384 818.172 122.973 821.238 120.152C824.428 117.331 826.022 113.896 826.022 109.848C826.022 106.291 824.857 103.408 822.526 101.2C820.318 98.992 816.884 96.6613 812.222 94.208C808.665 92.368 805.23 90.712 801.918 89.24C798.729 87.768 795.846 86.1733 793.27 84.456C789.59 82.0027 786.646 79.304 784.438 76.36C782.353 73.416 781.31 69.736 781.31 65.32C781.31 62.008 781.985 59.0027 783.334 56.304C784.684 53.6053 786.524 51.2747 788.854 49.312C791.308 47.3493 794.129 45.816 797.318 44.712C800.63 43.608 804.249 43.056 808.174 43.056C812.345 43.056 816.454 43.7307 820.502 45.08C824.55 46.3067 828.353 48.2693 831.91 50.968V70.472Z" fill="#111111"/>
<path d="M872.183 108.008C872.183 113.037 872.981 116.779 874.575 119.232C876.17 121.685 879.666 122.912 885.063 122.912V127.696H843.479V122.912C846.178 122.912 848.447 122.728 850.287 122.36C852.127 121.992 853.599 121.256 854.703 120.152C855.807 119.048 856.605 117.515 857.095 115.552C857.586 113.467 857.831 110.768 857.831 107.456V59.8L844.399 53.728V50.968L872.183 43.056V108.008ZM874.207 9.384C874.207 11.96 873.287 14.168 871.447 16.008C869.607 17.848 867.399 18.768 864.823 18.768C862.247 18.768 860.039 17.848 858.199 16.008C856.359 14.168 855.439 11.96 855.439 9.384C855.439 6.808 856.359 4.6 858.199 2.76C860.039 0.919999 862.247 0 864.823 0C867.399 0 869.607 0.919999 871.447 2.76C873.287 4.6 874.207 6.808 874.207 9.384Z" fill="#111111"/>
<path d="M913.06 26.864V44.896H938.452V51.52H913.06V108.744C913.06 112.915 913.858 115.981 915.452 117.944C917.17 119.907 920.543 120.888 925.572 120.888C927.535 120.888 929.62 120.827 931.828 120.704C934.159 120.459 936.919 120.029 940.108 119.416V125.12C936.306 126.469 932.196 127.573 927.78 128.432C923.487 129.291 919.807 129.72 916.74 129.72C910.116 129.72 905.455 128.187 902.756 125.12C900.058 121.931 898.708 117.392 898.708 111.504V51.52H883.988V47.288C890.244 45.5707 895.274 43.056 899.076 39.744C903.002 36.3093 906.13 32.016 908.46 26.864H913.06Z" fill="#111111"/>
<path d="M995.1 70.288C994.364 63.296 992.279 57.8987 988.844 54.096C985.409 50.2933 980.932 48.392 975.412 48.392C970.26 48.392 965.66 50.416 961.612 54.464C957.687 58.3893 955.172 63.664 954.068 70.288H995.1ZM953.332 75.44V78.568C953.332 84.456 954.191 89.7307 955.908 94.392C957.625 99.0533 959.956 103.04 962.9 106.352C965.967 109.664 969.524 112.24 973.572 114.08C977.62 115.797 981.975 116.656 986.636 116.656C991.297 116.656 995.284 115.92 998.596 114.448C1001.91 112.976 1005.47 110.339 1009.27 106.536L1012.4 109.664C1003.44 123.035 992.463 129.72 979.46 129.72C973.94 129.72 968.788 128.739 964.004 126.776C959.343 124.691 955.295 121.808 951.86 118.128C948.425 114.325 945.727 109.787 943.764 104.512C941.801 99.2373 940.82 93.4107 940.82 87.032C940.82 80.776 941.74 74.9493 943.58 69.552C945.42 64.1547 947.996 59.4933 951.308 55.568C954.62 51.6427 958.607 48.576 963.268 46.368C967.929 44.16 973.02 43.056 978.54 43.056C983.201 43.056 987.556 43.9147 991.604 45.632C995.652 47.2267 999.148 49.496 1002.09 52.44C1005.16 55.2613 1007.55 58.696 1009.27 62.744C1011.11 66.6693 1012.15 70.9013 1012.4 75.44H953.332Z" fill="#111111"/>
<path d="M729.536 10.12C729.536 12.2053 728.8 13.984 727.328 15.456C725.979 16.8053 724.2 17.48 721.992 17.48C720.029 17.48 718.251 16.928 716.656 15.824C715.061 14.5973 713.528 13.3093 712.056 11.96C710.584 10.488 709.112 9.2 707.64 8.09599C706.168 6.86933 704.512 6.256 702.672 6.256C697.765 6.256 694.085 8.21866 691.632 12.144C689.179 15.9467 687.952 20.4853 687.952 25.76V44.896H709.296V51.52H687.952V107.824C687.952 113.712 688.811 117.699 690.528 119.784C692.368 121.869 695.619 122.912 700.28 122.912H706.72V127.696H658.144V122.912H659.984C665.136 122.912 668.693 121.931 670.656 119.968C672.619 118.005 673.6 114.019 673.6 108.008V51.52H658.512V44.896H662.008C666.056 44.896 669 44.528 670.84 43.792C672.803 42.9333 674.029 40.7867 674.52 37.352C674.765 35.2667 675.011 33.0587 675.256 30.728C675.501 28.3973 675.931 25.8213 676.544 23C678.016 16.2533 681.757 10.7333 687.768 6.43999C693.779 2.14666 701.323 0 710.4 0C716.656 0 721.379 0.919999 724.568 2.76C727.88 4.47733 729.536 6.93066 729.536 10.12Z" fill="#111111"/>
</svg>
